<svg id="Calque_1" data-name="Calque 1" xmlns="http://www.w3.org/2000/svg" viewBox="0 0 411.53 116.2"><defs><style>.cls-1{fill:#fff;}</style></defs><title>NAOSTAGE-LOGO-BLANC</title><path class="cls-1" d="M168.66,6.24C151.27,19,124.78,40,115.06,55.92A26.94,26.94,0,1,0,160.8,84.39c10.45-17,17.4-49.2,21-70A8.34,8.34,0,0,0,168.66,6.24ZM149.32,84.29a17.55,17.55,0,0,1-24.78,0,18.12,18.12,0,0,1,0-24.87,17.55,17.55,0,0,1,24.78,0,18.12,18.12,0,0,1,0,24.87Z"/><path class="cls-1" d="M380.56,54.73a8.63,8.63,0,0,1,4.13,1.08,7.77,7.77,0,0,1,3.14,3.11,8.48,8.48,0,0,1,0,8.39,7.88,7.88,0,0,1-3.11,3.11,8.44,8.44,0,0,1-8.37,0,8,8,0,0,1-3.11-3.11,8.42,8.42,0,0,1,0-8.39,7.77,7.77,0,0,1,3.14-3.11A8.7,8.7,0,0,1,380.56,54.73Zm0,1.39a7.12,7.12,0,0,0-3.45.91,6.47,6.47,0,0,0-2.62,2.59,7,7,0,0,0,0,7,6.63,6.63,0,0,0,2.6,2.6,7,7,0,0,0,7,0,6.63,6.63,0,0,0,2.6-2.6,7,7,0,0,0,0-7A6.47,6.47,0,0,0,384,57,7.11,7.11,0,0,0,380.56,56.12Zm-3.69,11.66v-9H380a7.45,7.45,0,0,1,2.3.25,2.2,2.2,0,0,1,1.14.87,2.34,2.34,0,0,1,.42,1.32,2.44,2.44,0,0,1-.7,1.73,2.82,2.82,0,0,1-1.88.82,2.82,2.82,0,0,1,.77.48,10.42,10.42,0,0,1,1.33,1.8l1.11,1.77h-1.79l-.8-1.43a7.34,7.34,0,0,0-1.52-2.1,1.87,1.87,0,0,0-1.17-.31h-.86v3.84Zm1.46-5.09h1.77a2.86,2.86,0,0,0,1.73-.38,1.23,1.23,0,0,0,.47-1,1.21,1.21,0,0,0-.23-.72,1.34,1.34,0,0,0-.62-.47A4.35,4.35,0,0,0,380,60h-1.66Z"/><path class="cls-1" d="M103.26,71.85A18.55,18.55,0,0,0,98,58.54,17.77,17.77,0,0,0,84.67,53a17.79,17.79,0,0,0-13.3,5.5,19.39,19.39,0,0,0,0,26.62,17.76,17.76,0,0,0,13.3,5.51,17.75,17.75,0,0,0,12.6-4.83v3.24a.85.85,0,0,0,.84.84h4.31a.85.85,0,0,0,.84-.84V72.16s0-.07,0-.11S103.26,71.92,103.26,71.85Zm-6,0a13.1,13.1,0,0,1-3.58,9.29h0a12.68,12.68,0,0,1-18,0,13.8,13.8,0,0,1,0-18.57,12.65,12.65,0,0,1,18,0A13.08,13.08,0,0,1,97.27,71.85Z"/><path class="cls-1" d="M53.2,58.54A17.77,17.77,0,0,0,39.91,53,17.81,17.81,0,0,0,27.3,57.86V54.47a.84.84,0,0,0-.84-.84h-4.3a.84.84,0,0,0-.84.84V89.08a.84.84,0,0,0,.84.84h4.3a.84.84,0,0,0,.84-.84V71.85a13.08,13.08,0,0,1,3.59-9.28,11.78,11.78,0,0,1,9-3.78,11.78,11.78,0,0,1,9,3.78,13.08,13.08,0,0,1,3.59,9.28V89.08a.84.84,0,0,0,.84.84h4.3a.85.85,0,0,0,.84-.84v-18a.81.81,0,0,0,0-.27A18.41,18.41,0,0,0,53.2,58.54Z"/><path class="cls-1" d="M195.79,70.11c-2-.63-4-1.21-5.9-1.71a16.6,16.6,0,0,1-4.71-1.94,3,3,0,0,1-1.65-2.61,4.11,4.11,0,0,1,1.93-3.65,8.59,8.59,0,0,1,4.86-1.41,15.2,15.2,0,0,1,8.16,2.67.84.84,0,0,0,1.16-.26l2.27-3.55a.83.83,0,0,0-.24-1.14A20.19,20.19,0,0,0,190.1,53a13.73,13.73,0,0,0-8.68,3,9.63,9.63,0,0,0-3.87,7.91,7.86,7.86,0,0,0,2.29,5.85,12.59,12.59,0,0,0,5.29,3.08c2,.58,3.94,1.13,5.89,1.63a14.46,14.46,0,0,1,4.71,2.06,3.67,3.67,0,0,1,1.68,3.17,4.37,4.37,0,0,1-2,3.67,8.43,8.43,0,0,1-5.13,1.53,15.18,15.18,0,0,1-9.88-4,.84.84,0,0,0-.63-.2.87.87,0,0,0-.57.32L176.6,84.4a.84.84,0,0,0,.08,1.14,19.81,19.81,0,0,0,13.94,5.13,13.86,13.86,0,0,0,9-3,10.12,10.12,0,0,0,3.74-8.17,8.52,8.52,0,0,0-2.27-6A12.54,12.54,0,0,0,195.79,70.11Z"/><path class="cls-1" d="M232.4,49.58H221.53V41.05a.85.85,0,0,0-.84-.84h-4.31a.85.85,0,0,0-.84.84V77.44c0,3.86.85,6.88,2.52,9,2.23,2.82,5.55,4.25,9.88,4.25a15.07,15.07,0,0,0,4.72-.65.83.83,0,0,0,.56-1l-.76-3.93a.83.83,0,0,0-1.06-.64,12.56,12.56,0,0,1-3.46.41,6.14,6.14,0,0,1-5.09-2.1c-.88-1.1-1.32-2.85-1.32-5.21V55.34H232.4a.84.84,0,0,0,.83-.84V50.42A.83.83,0,0,0,232.4,49.58Z"/><path class="cls-1" d="M358.77,58.13a16.84,16.84,0,0,0-24.5.4,19.42,19.42,0,0,0-4.86,13.32A18.59,18.59,0,0,0,334.6,85.4a17.51,17.51,0,0,0,12.95,5.27,19.31,19.31,0,0,0,8.64-1.9A17.14,17.14,0,0,0,362.26,84a.83.83,0,0,0-.08-1.12l-3-2.87a.79.79,0,0,0-.63-.23.83.83,0,0,0-.6.3,12.7,12.7,0,0,1-10.38,4.83,11,11,0,0,1-8.63-3.61,13.78,13.78,0,0,1-3.47-8.23h27.21a.83.83,0,0,0,.83-.75,13.38,13.38,0,0,0,.08-1.6A17.69,17.69,0,0,0,358.77,58.13Zm-22.91,9.33a12.46,12.46,0,0,1,3.68-6,10.3,10.3,0,0,1,7.18-2.66,10.13,10.13,0,0,1,7.1,2.69,11.22,11.22,0,0,1,3.45,6Z"/><path class="cls-1" d="M271,58.54a18.82,18.82,0,0,0-26.59,0,19.36,19.36,0,0,0,0,26.62,18.83,18.83,0,0,0,25.9.68v3.24a.85.85,0,0,0,.84.84h4.31a.84.84,0,0,0,.83-.84V71.85A18.59,18.59,0,0,0,271,58.54Zm-.69,13.31a13.1,13.1,0,0,1-3.58,9.29,12.69,12.69,0,0,1-18,0,13.83,13.83,0,0,1,0-18.57,12.66,12.66,0,0,1,18,0A13.08,13.08,0,0,1,270.29,71.85Z"/><path class="cls-1" d="M316,58.54a18.82,18.82,0,0,0-26.59,0,19.36,19.36,0,0,0,0,26.62,18.83,18.83,0,0,0,25.9.68v6c0,4-.43,6.85-1.27,8.53-1.87,3.65-5.26,5.43-10.36,5.43s-9-2-11.6-6.25a.8.8,0,0,0-.55-.38.83.83,0,0,0-.65.15l-3.4,2.49a.83.83,0,0,0-.21,1.14,18.62,18.62,0,0,0,16.34,8.61c7.45,0,12.73-2.82,15.7-8.38,1.32-2.48,2-6.19,2-11.34v-20A18.59,18.59,0,0,0,316,58.54Zm-.69,13.31a13.11,13.11,0,0,1-3.59,9.29,12.68,12.68,0,0,1-18,0,13.8,13.8,0,0,1,0-18.57,12.65,12.65,0,0,1,18,0A13.08,13.08,0,0,1,315.29,71.85Z"/></svg>